<svg width="36" height="30" viewBox="0 0 36 30" fill="none" xmlns="http://www.w3.org/2000/svg">
<path fill-rule="evenodd" clip-rule="evenodd" d="M17.4142 0.54917C18.1952 1.28141 18.1952 2.46859 17.4142 3.20084L6.82842 13.125H34C35.1046 13.125 36 13.9645 36 15C36 16.0356 35.1046 16.875 34 16.875H6.82842L17.4142 26.7992C18.1952 27.5314 18.1952 28.7187 17.4142 29.4509C16.6332 30.183 15.3668 30.183 14.5858 29.4509L0.58578 16.3258C0.21072 15.9743 0 15.4973 0 15C0 14.5028 0.21072 14.0258 0.58578 13.6742L14.5858 0.54917C15.3668 -0.183057 16.6332 -0.183057 17.4142 0.54917Z" fill="black"/>
</svg>
