<svg width="28" height="28" viewBox="0 0 28 28" fill="none" xmlns="http://www.w3.org/2000/svg">
<path fill-rule="evenodd" clip-rule="evenodd" d="M5.6 12.6C5.6 10.7435 6.3375 8.96301 7.65025 7.65026C8.96301 6.3375 10.7435 5.6 12.6 5.6C14.4565 5.6 16.237 6.3375 17.5497 7.65026C18.8625 8.96301 19.6 10.7435 19.6 12.6C19.6 14.4565 18.8625 16.237 17.5497 17.5498C16.237 18.8625 14.4565 19.6 12.6 19.6C10.7435 19.6 8.96301 18.8625 7.65025 17.5498C6.3375 16.237 5.6 14.4565 5.6 12.6ZM12.6 2.8C11.0472 2.8 9.51657 3.169 8.13433 3.8766C6.75209 4.58419 5.55778 5.61012 4.64983 6.86984C3.74187 8.12956 3.14626 9.58701 2.91208 11.1221C2.6779 12.6571 2.81186 14.2259 3.3029 15.699C3.79395 17.1722 4.62804 18.5075 5.73642 19.5951C6.84481 20.6826 8.19576 21.4912 9.67796 21.9542C11.1602 22.4172 12.7312 22.5214 14.2615 22.2581C15.7919 21.9949 17.2377 21.3717 18.48 20.44C18.5198 20.493 18.5633 20.543 18.6102 20.5898L22.8102 24.7898C23.0742 25.0448 23.4279 25.1859 23.795 25.1827C24.162 25.1796 24.5132 25.0323 24.7727 24.7728C25.0323 24.5132 25.1796 24.162 25.1827 23.795C25.1859 23.4279 25.0448 23.0742 24.7898 22.8102L20.5898 18.6102C20.543 18.5633 20.493 18.5198 20.44 18.48C21.532 17.024 22.197 15.2927 22.3604 13.4801C22.5238 11.6675 22.1793 9.84515 21.3654 8.21731C20.5515 6.58947 19.3003 5.22044 17.7522 4.26363C16.204 3.30681 14.42 2.8 12.6 2.8Z" fill="#BABABA"/>
</svg>
