<svg width="28" height="28" viewBox="0 0 28 28" fill="none" xmlns="http://www.w3.org/2000/svg">
<path d="M2.33333 3.5H5.25L7.58333 19.8333H19.8333C21.122 19.8333 22.1667 20.878 22.1667 22.1667C22.1667 23.4554 21.122 24.5 19.8333 24.5C18.5446 24.5 17.5 23.4554 17.5 22.1667M10.5 5.83333H24.5001L22.1668 12.8333M21 16.3333H7.08331M12.8333 22.1667C12.8333 23.4554 11.7887 24.5 10.5 24.5C9.21133 24.5 8.16666 23.4554 8.16666 22.1667C8.16666 20.878 9.21133 19.8333 10.5 19.8333C11.7887 19.8333 12.8333 20.878 12.8333 22.1667Z" stroke="white" stroke-width="2.66667" stroke-linecap="round" stroke-linejoin="round"/>
<path d="M2.33333 3.5H5.25L7.58333 19.8333H19.8333C21.122 19.8333 22.1667 20.878 22.1667 22.1667C22.1667 23.4554 21.122 24.5 19.8333 24.5C18.5446 24.5 17.5 23.4554 17.5 22.1667M10.5 5.83333H24.5001L22.1668 12.8333M21 16.3333H7.08331M12.8333 22.1667C12.8333 23.4554 11.7887 24.5 10.5 24.5C9.21133 24.5 8.16666 23.4554 8.16666 22.1667C8.16666 20.878 9.21133 19.8333 10.5 19.8333C11.7887 19.8333 12.8333 20.878 12.8333 22.1667Z" stroke="white" stroke-width="2.66667" stroke-linecap="round" stroke-linejoin="round"/>
</svg>
